<mxfile host="app.diagrams.net" modified="2024-04-08T03:04:35.964Z" agent="Mozilla/5.0 (Windows NT 10.0; Win64; x64; rv:124.0) Gecko/20100101 Firefox/124.0" etag="cslfcxIuV5yB9o9N_ddy" version="24.2.1" type="github">
  <diagram name="PÃ¡gina-1" id="OVmor5jS-R9bCVFs5QnG">
    <mxGraphModel dx="1030" dy="794" grid="1" gridSize="10" guides="1" tooltips="1" connect="1" arrows="1" fold="1" page="0" pageScale="1" pageWidth="827" pageHeight="1169" math="0" shadow="0">
      <root>
        <mxCell id="0" />
        <mxCell id="1" parent="0" />
        <mxCell id="kv5K3Uq45o6Ma86xoF1O-12" value="GCloud Project (&lt;span style=&quot;font-size: 10px;&quot; data-prober=&quot;cloud-console-core-functions-project-id&quot; class=&quot;cfc-purview-picker-list-id cfc-color-secondary ng-star-inserted&quot;&gt;shared-41912) &lt;/span&gt;" style="swimlane;whiteSpace=wrap;html=1;startSize=20;swimlaneLine=1;expand=1;collapsible=0;fontSize=10;fontStyle=0;fillColor=#f8cecc;strokeColor=#b85450;fontFamily=Tahoma;align=left;spacingLeft=4;" parent="1" vertex="1">
          <mxGeometry x="480" y="240" width="600" height="460" as="geometry" />
        </mxCell>
        <mxCell id="kv5K3Uq45o6Ma86xoF1O-21" value="&lt;font style=&quot;font-size: 10px;&quot;&gt;VPC Network (mypopcache)&lt;/font&gt;" style="swimlane;whiteSpace=wrap;html=1;startSize=20;collapsible=0;fontSize=10;fontStyle=0;fillColor=#f8cecc;strokeColor=#b85450;fontFamily=Tahoma;align=left;spacingLeft=4;" parent="kv5K3Uq45o6Ma86xoF1O-12" vertex="1">
          <mxGeometry x="40" y="220" width="520" height="200" as="geometry">
            <mxRectangle x="280" y="80" width="200" height="40" as="alternateBounds" />
          </mxGeometry>
        </mxCell>
        <mxCell id="kv5K3Uq45o6Ma86xoF1O-27" value="&lt;font style=&quot;font-size: 10px;&quot;&gt;HTTP Requests&lt;br style=&quot;font-size: 10px;&quot;&gt;via Internal IP&lt;/font&gt;" style="edgeStyle=orthogonalEdgeStyle;rounded=0;orthogonalLoop=1;jettySize=auto;html=1;fillColor=#1ba1e2;strokeColor=#006EAF;fontFamily=Tahoma;fontSize=10;startArrow=classic;startFill=1;entryX=0;entryY=0.5;entryDx=0;entryDy=0;exitX=1;exitY=0.5;exitDx=0;exitDy=0;align=center;spacingLeft=4;" parent="kv5K3Uq45o6Ma86xoF1O-21" edge="1" target="kv5K3Uq45o6Ma86xoF1O-14" source="kv5K3Uq45o6Ma86xoF1O-13">
          <mxGeometry relative="1" as="geometry">
            <mxPoint x="200" y="90" as="sourcePoint" />
            <mxPoint x="320" y="90" as="targetPoint" />
          </mxGeometry>
        </mxCell>
        <mxCell id="kv5K3Uq45o6Ma86xoF1O-13" value="Cloud Run Container" style="swimlane;whiteSpace=wrap;html=1;startSize=20;collapsible=0;fontSize=10;fontStyle=0;fillColor=#f8cecc;strokeColor=#b85450;fontFamily=Tahoma;align=left;spacingLeft=4;" parent="kv5K3Uq45o6Ma86xoF1O-21" vertex="1">
          <mxGeometry x="40" y="60" width="160" height="100" as="geometry">
            <mxRectangle x="40" y="80" width="200" height="40" as="alternateBounds" />
          </mxGeometry>
        </mxCell>
        <mxCell id="kv5K3Uq45o6Ma86xoF1O-8" value="&lt;div style=&quot;font-size: 10px;&quot;&gt;Nuxt3 SSR App&lt;/div&gt;" style="rounded=0;whiteSpace=wrap;html=1;fontSize=10;fontFamily=Tahoma;align=left;spacingLeft=4;" parent="kv5K3Uq45o6Ma86xoF1O-13" vertex="1">
          <mxGeometry x="20" y="40" width="120" height="40" as="geometry" />
        </mxCell>
        <mxCell id="kv5K3Uq45o6Ma86xoF1O-14" value="Cloud Run Container" style="swimlane;whiteSpace=wrap;html=1;startSize=20;collapsible=0;fontSize=10;fontStyle=0;fillColor=#f8cecc;strokeColor=#b85450;fontFamily=Tahoma;align=left;spacingLeft=4;" parent="kv5K3Uq45o6Ma86xoF1O-21" vertex="1">
          <mxGeometry x="320" y="60" width="160" height="100" as="geometry">
            <mxRectangle x="280" y="80" width="200" height="40" as="alternateBounds" />
          </mxGeometry>
        </mxCell>
        <mxCell id="kv5K3Uq45o6Ma86xoF1O-9" value="ASP.NET Core 8 WebAPI" style="rounded=0;whiteSpace=wrap;html=1;fontSize=10;fontFamily=Tahoma;align=left;spacingLeft=4;" parent="kv5K3Uq45o6Ma86xoF1O-14" vertex="1">
          <mxGeometry x="20" y="40" width="120" height="40" as="geometry" />
        </mxCell>
        <mxCell id="REMJgbg8ZPlpd7Nh2icU-43" style="edgeStyle=orthogonalEdgeStyle;rounded=0;orthogonalLoop=1;jettySize=auto;html=1;entryX=0.5;entryY=0;entryDx=0;entryDy=0;fillColor=#1ba1e2;strokeColor=#006EAF;fontFamily=Tahoma;fontSize=10;align=left;spacingLeft=4;" parent="kv5K3Uq45o6Ma86xoF1O-12" source="REMJgbg8ZPlpd7Nh2icU-21" target="kv5K3Uq45o6Ma86xoF1O-13" edge="1">
          <mxGeometry relative="1" as="geometry">
            <Array as="points">
              <mxPoint x="300" y="260" />
              <mxPoint x="160" y="260" />
            </Array>
          </mxGeometry>
        </mxCell>
        <mxCell id="REMJgbg8ZPlpd7Nh2icU-44" style="edgeStyle=orthogonalEdgeStyle;rounded=0;orthogonalLoop=1;jettySize=auto;html=1;entryX=0.5;entryY=0;entryDx=0;entryDy=0;fillColor=#1ba1e2;strokeColor=#006EAF;fontFamily=Tahoma;fontSize=10;align=left;spacingLeft=4;" parent="kv5K3Uq45o6Ma86xoF1O-12" source="REMJgbg8ZPlpd7Nh2icU-21" target="kv5K3Uq45o6Ma86xoF1O-14" edge="1">
          <mxGeometry relative="1" as="geometry">
            <Array as="points">
              <mxPoint x="300" y="260" />
              <mxPoint x="440" y="260" />
            </Array>
          </mxGeometry>
        </mxCell>
        <mxCell id="REMJgbg8ZPlpd7Nh2icU-21" value="Artifact Registry" style="swimlane;fontStyle=0;childLayout=stackLayout;horizontal=1;startSize=20;horizontalStack=0;resizeParent=1;resizeParentMax=0;resizeLast=0;collapsible=0;marginBottom=0;whiteSpace=wrap;html=1;fontSize=10;fillColor=#f8cecc;strokeColor=#b85450;fontFamily=Tahoma;align=left;spacingLeft=4;" parent="kv5K3Uq45o6Ma86xoF1O-12" vertex="1">
          <mxGeometry x="240" y="120" width="120" height="60" as="geometry" />
        </mxCell>
        <mxCell id="REMJgbg8ZPlpd7Nh2icU-22" value="Client Image" style="text;strokeColor=none;fillColor=none;align=left;verticalAlign=middle;spacingLeft=4;spacingRight=4;overflow=hidden;points=[[0,0.5],[1,0.5]];portConstraint=eastwest;rotatable=0;whiteSpace=wrap;html=1;fontSize=10;fontFamily=Tahoma;" parent="REMJgbg8ZPlpd7Nh2icU-21" vertex="1">
          <mxGeometry y="20" width="120" height="20" as="geometry" />
        </mxCell>
        <mxCell id="REMJgbg8ZPlpd7Nh2icU-23" value="WebAPI Image" style="text;strokeColor=none;fillColor=none;align=left;verticalAlign=middle;spacingLeft=4;spacingRight=4;overflow=hidden;points=[[0,0.5],[1,0.5]];portConstraint=eastwest;rotatable=0;whiteSpace=wrap;html=1;fontSize=10;fontFamily=Tahoma;" parent="REMJgbg8ZPlpd7Nh2icU-21" vertex="1">
          <mxGeometry y="40" width="120" height="20" as="geometry" />
        </mxCell>
        <mxCell id="REMJgbg8ZPlpd7Nh2icU-42" style="edgeStyle=orthogonalEdgeStyle;rounded=0;orthogonalLoop=1;jettySize=auto;html=1;fillColor=#1ba1e2;strokeColor=#006EAF;fontFamily=Tahoma;fontSize=10;entryX=0.5;entryY=0;entryDx=0;entryDy=0;align=left;spacingLeft=4;" parent="kv5K3Uq45o6Ma86xoF1O-12" source="REMJgbg8ZPlpd7Nh2icU-31" target="REMJgbg8ZPlpd7Nh2icU-21" edge="1">
          <mxGeometry relative="1" as="geometry" />
        </mxCell>
        <mxCell id="REMJgbg8ZPlpd7Nh2icU-31" value="Cloud Build" style="rounded=0;whiteSpace=wrap;html=1;fontSize=10;fillColor=#f8cecc;strokeColor=#b85450;fontFamily=Tahoma;align=left;spacingLeft=4;" parent="kv5K3Uq45o6Ma86xoF1O-12" vertex="1">
          <mxGeometry x="240" y="60" width="120" height="20" as="geometry" />
        </mxCell>
        <mxCell id="REMJgbg8ZPlpd7Nh2icU-47" style="edgeStyle=orthogonalEdgeStyle;rounded=0;orthogonalLoop=1;jettySize=auto;html=1;exitX=0.5;exitY=1;exitDx=0;exitDy=0;fontFamily=Tahoma;fontSize=10;align=left;spacingLeft=4;" parent="kv5K3Uq45o6Ma86xoF1O-12" source="REMJgbg8ZPlpd7Nh2icU-31" target="REMJgbg8ZPlpd7Nh2icU-31" edge="1">
          <mxGeometry relative="1" as="geometry" />
        </mxCell>
        <mxCell id="kv5K3Uq45o6Ma86xoF1O-34" style="edgeStyle=orthogonalEdgeStyle;rounded=0;orthogonalLoop=1;jettySize=auto;html=1;fillColor=#1ba1e2;strokeColor=#006EAF;fontFamily=Tahoma;fontSize=10;entryX=0.25;entryY=0;entryDx=0;entryDy=0;align=left;spacingLeft=4;startArrow=classic;startFill=1;" parent="kv5K3Uq45o6Ma86xoF1O-12" source="kv5K3Uq45o6Ma86xoF1O-13" target="kv5K3Uq45o6Ma86xoF1O-16" edge="1">
          <mxGeometry relative="1" as="geometry" />
        </mxCell>
        <mxCell id="3MWtZVwlPJY6MIcf2p_x-2" value="Authentication&lt;br&gt;Only" style="edgeLabel;html=1;align=center;verticalAlign=middle;resizable=0;points=[];spacingLeft=4;" vertex="1" connectable="0" parent="kv5K3Uq45o6Ma86xoF1O-34">
          <mxGeometry x="-0.43" y="-1" relative="1" as="geometry">
            <mxPoint x="44" as="offset" />
          </mxGeometry>
        </mxCell>
        <mxCell id="kv5K3Uq45o6Ma86xoF1O-16" value="Supabase" style="swimlane;fontStyle=0;childLayout=stackLayout;horizontal=1;startSize=20;horizontalStack=0;resizeParent=1;resizeParentMax=0;resizeLast=0;collapsible=0;marginBottom=0;whiteSpace=wrap;html=1;fontSize=10;fillColor=#dae8fc;strokeColor=#6c8ebf;fontFamily=Tahoma;align=left;spacingLeft=4;" parent="1" vertex="1">
          <mxGeometry x="720" y="740" width="120" height="80" as="geometry">
            <mxRectangle x="1240" y="440" width="160" height="40" as="alternateBounds" />
          </mxGeometry>
        </mxCell>
        <mxCell id="kv5K3Uq45o6Ma86xoF1O-17" value="Authentication" style="text;strokeColor=none;fillColor=none;align=left;verticalAlign=middle;spacingLeft=4;spacingRight=4;overflow=hidden;points=[[0,0.5],[1,0.5]];portConstraint=eastwest;rotatable=0;whiteSpace=wrap;html=1;fontSize=10;fontFamily=Tahoma;" parent="kv5K3Uq45o6Ma86xoF1O-16" vertex="1">
          <mxGeometry y="20" width="120" height="20" as="geometry" />
        </mxCell>
        <mxCell id="kv5K3Uq45o6Ma86xoF1O-18" value="Postgres Database" style="text;strokeColor=none;fillColor=none;align=left;verticalAlign=middle;spacingLeft=4;spacingRight=4;overflow=hidden;points=[[0,0.5],[1,0.5]];portConstraint=eastwest;rotatable=0;whiteSpace=wrap;html=1;fontSize=10;fontFamily=Tahoma;" parent="kv5K3Uq45o6Ma86xoF1O-16" vertex="1">
          <mxGeometry y="40" width="120" height="20" as="geometry" />
        </mxCell>
        <mxCell id="kv5K3Uq45o6Ma86xoF1O-19" value="Storage" style="text;strokeColor=none;fillColor=none;align=left;verticalAlign=middle;spacingLeft=4;spacingRight=4;overflow=hidden;points=[[0,0.5],[1,0.5]];portConstraint=eastwest;rotatable=0;whiteSpace=wrap;html=1;fontSize=10;fontFamily=Tahoma;" parent="kv5K3Uq45o6Ma86xoF1O-16" vertex="1">
          <mxGeometry y="60" width="120" height="20" as="geometry" />
        </mxCell>
        <mxCell id="kv5K3Uq45o6Ma86xoF1O-33" style="edgeStyle=orthogonalEdgeStyle;rounded=0;orthogonalLoop=1;jettySize=auto;html=1;fillColor=#1ba1e2;strokeColor=#006EAF;fontFamily=Tahoma;fontSize=10;startArrow=classic;startFill=1;entryX=0.75;entryY=0;entryDx=0;entryDy=0;align=left;spacingLeft=4;" parent="1" source="kv5K3Uq45o6Ma86xoF1O-14" target="kv5K3Uq45o6Ma86xoF1O-16" edge="1">
          <mxGeometry relative="1" as="geometry" />
        </mxCell>
        <mxCell id="3MWtZVwlPJY6MIcf2p_x-4" style="edgeStyle=orthogonalEdgeStyle;rounded=0;orthogonalLoop=1;jettySize=auto;html=1;align=left;spacingLeft=4;fillColor=#1ba1e2;strokeColor=#006EAF;" edge="1" parent="1" source="REMJgbg8ZPlpd7Nh2icU-32" target="REMJgbg8ZPlpd7Nh2icU-31">
          <mxGeometry relative="1" as="geometry" />
        </mxCell>
        <mxCell id="REMJgbg8ZPlpd7Nh2icU-32" value="Github Actions" style="rounded=0;whiteSpace=wrap;html=1;fontSize=10;fillColor=#dae8fc;strokeColor=#6c8ebf;fontFamily=Tahoma;align=left;spacingLeft=4;" parent="1" vertex="1">
          <mxGeometry x="720" y="180" width="120" height="20" as="geometry" />
        </mxCell>
        <mxCell id="REMJgbg8ZPlpd7Nh2icU-34" value="Update on&lt;br style=&quot;font-size: 10px;&quot;&gt;Main Branch" style="edgeStyle=orthogonalEdgeStyle;rounded=0;orthogonalLoop=1;jettySize=auto;html=1;fillColor=#1ba1e2;strokeColor=#006EAF;fontFamily=Tahoma;fontSize=10;align=center;spacingLeft=4;" parent="1" source="REMJgbg8ZPlpd7Nh2icU-33" target="REMJgbg8ZPlpd7Nh2icU-32" edge="1">
          <mxGeometry relative="1" as="geometry" />
        </mxCell>
        <mxCell id="REMJgbg8ZPlpd7Nh2icU-33" value="Codebase" style="rounded=0;whiteSpace=wrap;html=1;fontSize=10;fillColor=#dae8fc;strokeColor=#6c8ebf;fontFamily=Tahoma;align=left;spacingLeft=4;" parent="1" vertex="1">
          <mxGeometry x="720" y="80" width="120" height="20" as="geometry" />
        </mxCell>
        <mxCell id="REMJgbg8ZPlpd7Nh2icU-50" style="edgeStyle=orthogonalEdgeStyle;rounded=0;orthogonalLoop=1;jettySize=auto;html=1;fillColor=#1ba1e2;strokeColor=#006EAF;entryX=0;entryY=0.5;entryDx=0;entryDy=0;fontFamily=Tahoma;fontSize=10;startArrow=classic;startFill=1;align=left;spacingLeft=4;" parent="1" source="REMJgbg8ZPlpd7Nh2icU-48" target="kv5K3Uq45o6Ma86xoF1O-13" edge="1">
          <mxGeometry relative="1" as="geometry" />
        </mxCell>
        <mxCell id="REMJgbg8ZPlpd7Nh2icU-48" value="Public Access" style="rounded=0;whiteSpace=wrap;html=1;fontSize=10;fillColor=#d5e8d4;strokeColor=#82b366;fontFamily=Tahoma;align=left;spacingLeft=4;" parent="1" vertex="1">
          <mxGeometry x="480" y="740" width="120" height="20" as="geometry" />
        </mxCell>
      </root>
    </mxGraphModel>
  </diagram>
</mxfile>
